<svg width="20" height="20" viewBox="0 0 20 20" fill="none" xmlns="http://www.w3.org/2000/svg">
<path d="M3.11727 2.08337C2.97838 3.33337 3.11731 6.25005 2.28394 7.50004C1.72835 8.33337 1.45062 10.4167 1.86728 12.0834C2.20062 13.4167 3.39505 16.25 3.95061 17.5" stroke="#2A2A2A" stroke-width="2" stroke-linecap="round"/>
<path d="M11.6667 1.66663C11.6667 2.91663 11.25 4.99996 12.0833 6.24996C12.6001 7.02517 13.75 9.99996 13.3333 11.6666C13 13 11.3889 17.0833 10.8333 18.3333" stroke="#2A2A2A" stroke-width="2" stroke-linecap="round"/>
<path d="M8.33333 10.8334C7.08333 12.5 6.25 14.5834 6.25 17.9167" stroke="#2A2A2A" stroke-width="2" stroke-linecap="round"/>
<path d="M18.3333 4.16663L14.1667 4.16663" stroke="#2A2A2A" stroke-width="2" stroke-linecap="round"/>
<path d="M15.4167 2.56409L14.1666 4.23077" stroke="#2A2A2A" stroke-width="2" stroke-linecap="round"/>
<path d="M14.1667 4.23071L15.4167 5.8974" stroke="#2A2A2A" stroke-width="2" stroke-linecap="round"/>
<path d="M2.5 6.66663C3.19444 7.77774 5.66667 8.99996 6.66667 8.33329C7.91667 7.49996 10.8333 6.66663 12.5 6.66663" stroke="#2A2A2A" stroke-width="2"/>
<path d="M2.0408 12.0408C3.56858 11.763 6.01359 11.0408 7.34692 12.0408" stroke="#2A2A2A" stroke-width="2" stroke-linecap="round"/>
<path d="M7.34695 12.2448C8.31918 11.8282 11.25 11.4166 12.9167 12.0832" stroke="#2A2A2A" stroke-width="2" stroke-linecap="round"/>
<path d="M6.25 4.16663V4.58329" stroke="#2A2A2A" stroke-linecap="round"/>
</svg>
