<svg width="36" height="36" viewBox="0 0 36 36" fill="none" xmlns="http://www.w3.org/2000/svg">
<path d="M24.75 0H11.25C5.03775 0 0 5.03775 0 11.25V24.75C0 30.9622 5.03775 36 11.25 36H24.75C30.9622 36 36 30.9622 36 24.75V11.25C36 5.03775 30.9622 0 24.75 0ZM32.625 24.75C32.625 29.0925 29.0925 32.625 24.75 32.625H11.25C6.9075 32.625 3.375 29.0925 3.375 24.75V11.25C3.375 6.9075 6.9075 3.375 11.25 3.375H24.75C29.0925 3.375 32.625 6.9075 32.625 11.25V24.75Z" fill="url(#paint0_linear)"/>
<path d="M18 9C13.0297 9 9 13.0297 9 18C9 22.9703 13.0297 27 18 27C22.9703 27 27 22.9703 27 18C27 13.0297 22.9703 9 18 9ZM18 23.625C14.8995 23.625 12.375 21.1005 12.375 18C12.375 14.8973 14.8995 12.375 18 12.375C21.1005 12.375 23.625 14.8973 23.625 18C23.625 21.1005 21.1005 23.625 18 23.625Z" fill="url(#paint1_linear)"/>
<path d="M27.6751 9.52422C28.3374 9.52422 28.8743 8.9873 28.8743 8.32498C28.8743 7.66265 28.3374 7.12573 27.6751 7.12573C27.0128 7.12573 26.4758 7.66265 26.4758 8.32498C26.4758 8.9873 27.0128 9.52422 27.6751 9.52422Z" fill="url(#paint2_linear)"/>
<defs>
<linearGradient id="paint0_linear" x1="3.29546" y1="32.7048" x2="32.7045" y2="3.29524" gradientUnits="userSpaceOnUse">
<stop stop-color="#FFC107"/>
<stop offset="0.507" stop-color="#F44336"/>
<stop offset="0.99" stop-color="#9C27B0"/>
</linearGradient>
<linearGradient id="paint1_linear" x1="11.6362" y1="24.3638" x2="24.3638" y2="11.6362" gradientUnits="userSpaceOnUse">
<stop stop-color="#FFC107"/>
<stop offset="0.507" stop-color="#F44336"/>
<stop offset="0.99" stop-color="#9C27B0"/>
</linearGradient>
<linearGradient id="paint2_linear" x1="26.8272" y1="9.17311" x2="28.523" y2="7.47706" gradientUnits="userSpaceOnUse">
<stop stop-color="#FFC107"/>
<stop offset="0.507" stop-color="#F44336"/>
<stop offset="0.99" stop-color="#9C27B0"/>
</linearGradient>
</defs>
</svg>
