<svg width="145" height="38" viewBox="0 0 145 38" fill="none" xmlns="http://www.w3.org/2000/svg">
<path d="M37.7191 18.6095C37.7191 28.8873 29.3873 37.2191 19.1095 37.2191C8.83177 37.2191 0.5 28.8873 0.5 18.6095C0.5 8.33177 8.83177 0 19.1095 0C29.3873 0 37.7191 8.33177 37.7191 18.6095Z" fill="#4E4E4E"/>
<path d="M37.4138 15.2295L21.8355 28.6343L26.7404 34.3344C26.998 34.6338 27.19 34.9674 27.3178 35.3176C25.313 36.3044 23.1048 36.9409 20.7729 37.1473L7.7376 21.9984C6.59243 20.6675 6.74295 18.6603 8.07379 17.5152C9.40464 16.37 11.4118 16.5205 12.557 17.8514L17.9474 24.1158L35.2065 9.26465C36.2631 11.0803 37.0212 13.0909 37.4138 15.2295Z" fill="url(#paint0_radial)"/>
<path d="M2.77856 27.5388C2.95963 27.0522 3.26266 26.6032 3.684 26.2407C5.01485 25.0955 7.02205 25.246 8.16722 26.5769L17.2465 37.1283C10.9967 36.5067 5.65681 32.7929 2.77856 27.5388Z" fill="url(#paint1_radial)"/>
<path d="M58.9323 28.1106C57.3459 28.1106 55.964 27.7508 54.7866 27.0312C53.6254 26.3117 52.726 25.2814 52.0882 23.9404C51.4667 22.5993 51.156 21.013 51.156 19.1814C51.156 17.3498 51.4667 15.7634 52.0882 14.4224C52.7096 13.0814 53.6009 12.0511 54.762 11.3315C55.9395 10.612 57.3296 10.2522 58.9323 10.2522C60.5349 10.2522 61.925 10.612 63.1025 11.3315C64.28 12.0511 65.1794 13.0814 65.8009 14.4224C66.4223 15.7471 66.733 17.3252 66.733 19.1569C66.733 20.9885 66.4141 22.583 65.7763 23.9404C65.1549 25.2814 64.2554 26.3117 63.0779 27.0312C61.9168 27.7508 60.5349 28.1106 58.9323 28.1106ZM58.9323 26.7614C60.8947 26.7614 62.4156 26.0991 63.495 24.7744C64.5907 23.4497 65.1385 21.5772 65.1385 19.1569C65.1385 16.7365 64.5989 14.8722 63.5195 13.5638C62.4401 12.2555 60.9111 11.6014 58.9323 11.6014C56.9698 11.6014 55.4407 12.2637 54.345 13.5884C53.2656 14.8967 52.726 16.7528 52.726 19.1569C52.726 21.5609 53.2656 23.4334 54.345 24.7744C55.4407 26.0991 56.9698 26.7614 58.9323 26.7614Z" fill="url(#paint2_radial)"/>
<path d="M85.9897 10.4484L78.4342 27.9143H77.0359L69.4805 10.4484H71.075L77.7473 25.9519L84.4197 10.4484H85.9897Z" fill="url(#paint3_radial)"/>
<path d="M95.3046 28.1106C93.9309 28.1106 92.7125 27.9307 91.6495 27.5709C90.6029 27.1948 89.6707 26.6142 88.853 25.8292L89.4908 24.6272C90.3576 25.3958 91.2325 25.9437 92.1156 26.2708C93.0151 26.5978 94.0781 26.7614 95.3046 26.7614C96.7765 26.7614 97.9212 26.4588 98.7389 25.8537C99.5566 25.2487 99.9655 24.3983 99.9655 23.3026C99.9655 22.6648 99.761 22.1496 99.3522 21.7571C98.9597 21.3483 98.4527 21.0294 97.8313 20.8004C97.2262 20.5715 96.4167 20.3425 95.4027 20.1136C94.0617 19.8192 92.966 19.5166 92.1156 19.2059C91.2816 18.8788 90.5784 18.3964 90.006 17.7586C89.4336 17.1208 89.1474 16.2704 89.1474 15.2074C89.1474 14.2262 89.4009 13.3594 89.9078 12.6071C90.4148 11.8549 91.1344 11.2743 92.0666 10.8655C93.0151 10.4566 94.1108 10.2522 95.3537 10.2522C96.5475 10.2522 97.6514 10.4484 98.6653 10.8409C99.6793 11.2171 100.554 11.7813 101.29 12.5336L100.652 13.7356C99.8346 12.9996 99.0006 12.46 98.1502 12.1165C97.2998 11.7731 96.3676 11.6014 95.3537 11.6014C93.8818 11.6014 92.7289 11.9203 91.8948 12.5581C91.0771 13.1959 90.6683 14.0708 90.6683 15.1829C90.6683 16.1478 91.0281 16.8673 91.7477 17.3416C92.4672 17.8158 93.522 18.2165 94.9121 18.5436L95.6235 18.7153C96.9318 19.026 97.9703 19.3286 98.7389 19.6229C99.5075 19.9173 100.162 20.3589 100.701 20.9476C101.241 21.5363 101.511 22.3213 101.511 23.3026C101.511 24.2511 101.257 25.0933 100.75 25.8292C100.243 26.5488 99.5157 27.113 98.5672 27.5218C97.635 27.9143 96.5475 28.1106 95.3046 28.1106Z" fill="#4E4E4E"/>
<path d="M106.277 10.4484H107.798V26.5897H116.825V27.9143H106.277V10.4484Z" fill="#4E4E4E"/>
<path d="M120.826 10.4484H122.346V27.9143H120.826V10.4484Z" fill="#4E4E4E"/>
<path d="M144.5 10.4484V27.9143H143.077V13.9318L136.945 27.9143H135.816L129.634 14.0545L129.659 27.9143H128.236V10.4484H129.487L136.405 26.0991L143.224 10.4484H144.5Z" fill="#4E4E4E"/>
<defs>
<radialGradient id="paint0_radial" cx="0" cy="0" r="1" gradientUnits="userSpaceOnUse" gradientTransform="translate(21.7919 32.6924) rotate(99.136) scale(19.3142 23.8641)">
<stop stop-color="#F8DE00"/>
<stop offset="1" stop-color="#C59A00"/>
</radialGradient>
<radialGradient id="paint1_radial" cx="0" cy="0" r="1" gradientUnits="userSpaceOnUse" gradientTransform="translate(21.7919 32.6924) rotate(99.136) scale(19.3142 23.8641)">
<stop stop-color="#F8DE00"/>
<stop offset="1" stop-color="#C59A00"/>
</radialGradient>
<radialGradient id="paint2_radial" cx="0" cy="0" r="1" gradientUnits="userSpaceOnUse" gradientTransform="translate(70.2782 25.2573) rotate(104.172) scale(12.5969 23.5693)">
<stop stop-color="#F8DE00"/>
<stop offset="1" stop-color="#C59A00"/>
</radialGradient>
<radialGradient id="paint3_radial" cx="0" cy="0" r="1" gradientUnits="userSpaceOnUse" gradientTransform="translate(70.2782 25.2573) rotate(104.172) scale(12.5969 23.5693)">
<stop stop-color="#F8DE00"/>
<stop offset="1" stop-color="#C59A00"/>
</radialGradient>
</defs>
</svg>
