<svg width="24" height="24" viewBox="0 0 24 24" fill="none" xmlns="http://www.w3.org/2000/svg">
<path d="M3 21.5V2.5C8.6 2.5 9.66667 10.5 9.5 14.5H6V21.5C5.83333 22 5.3 22.5 4.5 22.5C3.7 22.5 3.16667 22 3 21.5Z" stroke="black" stroke-width="2" stroke-linejoin="round"/>
<path d="M12.5 2.5V10C12.6667 10.6667 13.4 12 15 12C15 15.5 15 17.8716 15 21C15 21.3333 15.3 22 16.5 22C17.7 22 18 21.3333 18 21V12C19 12 21 11.6 21 10C21 8.4 21 4.33333 21 2.5" stroke="black" stroke-width="2" stroke-linecap="round" stroke-linejoin="round"/>
<path d="M16.75 4.5V8.5" stroke="black" stroke-width="2" stroke-linecap="round"/>
</svg>
